<?xml version="1.0" standalone="no"?>
<!DOCTYPE svg PUBLIC "-//W3C//DTD SVG 20010904//EN"
 "http://www.w3.org/TR/2001/REC-SVG-20010904/DTD/svg10.dtd">
<svg version="1.0" xmlns="http://www.w3.org/2000/svg"
 width="840.000000pt" height="433.000000pt" viewBox="0 0 840.000000 433.000000"
 preserveAspectRatio="xMidYMid meet">

<g transform="translate(0.000000,433.000000) scale(0.100000,-0.100000)"
fill="#000000" stroke="none">
<path d="M3359 3382 c-30 -16 -101 -60 -159 -99 -110 -74 -202 -123 -372 -198
-309 -137 -414 -278 -380 -512 10 -69 7 -73 -51 -73 -60 0 -162 -31 -256 -76
-75 -37 -110 -62 -182 -131 l-89 -85 -44 11 c-102 25 -324 4 -368 -36 -10 -9
-18 -27 -18 -40 0 -58 128 -259 223 -351 64 -61 66 -64 76 -132 14 -90 33
-147 81 -243 l40 -79 -104 -48 c-101 -47 -121 -65 -110 -95 12 -30 43 -25 149
25 59 27 113 50 120 50 7 0 20 -11 29 -25 16 -24 15 -24 -52 -71 -120 -84
-132 -95 -132 -113 0 -21 19 -41 38 -41 8 0 63 34 123 75 l110 76 29 -21 c17
-12 30 -24 30 -26 0 -3 -37 -46 -82 -96 -61 -65 -83 -97 -83 -116 0 -22 5 -28
26 -30 22 -3 42 14 122 99 l95 102 99 -28 c189 -55 378 -35 557 58 107 54 246
191 296 289 19 38 37 68 40 68 3 -1 24 -29 48 -64 163 -242 432 -416 742 -482
114 -23 334 -23 445 0 170 37 324 103 461 197 86 60 233 208 293 298 69 101
138 255 168 376 15 61 28 111 29 113 1 2 35 -19 75 -47 41 -27 93 -55 116 -61
37 -11 46 -10 80 7 54 28 93 111 148 318 25 94 64 220 87 280 36 97 42 122 46
215 3 90 1 113 -17 162 -44 116 -127 188 -321 280 -272 130 -309 149 -420 224
-63 42 -139 88 -168 102 -96 44 -168 23 -362 -107 l-102 -68 -49 13 c-173 45
-424 43 -594 -4 -27 -8 -40 -2 -125 56 -197 135 -280 157 -381 104z m121 -161
c0 -5 -11 -16 -24 -24 -27 -18 -102 -116 -204 -267 -86 -129 -114 -208 -136
-385 -18 -144 -45 -255 -78 -318 -22 -43 -151 -180 -201 -212 -37 -24 -37 -23
-77 129 -35 139 -67 241 -105 341 -15 39 -29 100 -32 136 -11 125 46 193 232
279 242 113 340 165 460 244 120 79 165 100 165 77z m1522 -59 c168 -110 222
-141 366 -206 193 -87 238 -112 287 -157 59 -54 69 -83 63 -182 -4 -63 -14
-104 -42 -176 -21 -51 -55 -159 -76 -240 -41 -157 -56 -201 -66 -201 -17 0
-144 113 -180 161 -75 98 -93 152 -125 387 -11 81 -31 177 -43 214 -28 79
-214 355 -282 418 -24 22 -44 43 -44 45 0 19 53 -5 142 -63z m-626 -101 c249
-51 484 -208 622 -414 47 -69 49 -76 65 -193 20 -141 47 -238 88 -311 l29 -52
-10 -101 c-45 -433 -345 -777 -770 -883 -108 -27 -327 -29 -436 -4 -437 99
-757 465 -790 902 -6 78 -5 84 29 156 42 87 60 154 82 304 12 88 22 121 48
164 42 71 195 226 276 281 114 76 277 141 411 163 73 12 271 6 356 -12z
m-1861 -713 c10 -24 33 -99 51 -168 l34 -125 -22 -41 c-15 -28 -19 -49 -14
-68 9 -36 49 -76 77 -76 11 0 30 -12 42 -26 53 -68 121 -64 239 16 40 27 76
46 80 42 3 -4 8 -20 10 -36 3 -27 -1 -31 -72 -60 -77 -32 -94 -52 -69 -82 15
-19 44 -15 115 14 50 20 52 20 57 2 4 -16 -6 -21 -65 -34 -39 -9 -76 -16 -84
-16 -22 0 -36 -37 -24 -60 13 -24 24 -24 110 -5 92 20 100 19 100 -10 0 -24 0
-24 -112 -27 -111 -3 -113 -3 -116 -27 -6 -39 21 -51 116 -51 l83 0 -28 -52
c-44 -84 -174 -208 -263 -251 -114 -56 -185 -70 -315 -64 -60 2 -127 11 -148
19 l-38 14 61 67 c68 73 77 109 30 115 -20 2 -41 -13 -99 -72 -62 -62 -77 -73
-93 -65 -10 5 -18 13 -18 18 0 4 26 25 58 46 104 68 126 102 81 126 -18 9 -34
2 -118 -54 -75 -50 -101 -63 -114 -55 -9 5 -17 13 -17 17 0 4 45 29 100 55 86
40 100 50 100 71 0 14 -8 29 -20 35 -16 9 -40 1 -126 -40 -59 -27 -110 -50
-114 -50 -14 0 -88 154 -104 215 -8 32 -14 59 -13 60 1 0 16 7 32 15 25 13 30
22 30 50 0 32 -4 36 -65 66 -74 36 -172 133 -227 225 -48 81 -49 85 -12 93 91
18 215 -2 309 -49 60 -30 74 -31 100 -5 27 27 25 46 -6 77 l-27 27 66 62 c104
99 252 162 383 163 l62 1 17 -42z"/>
<path d="M3675 2607 c-109 -37 -186 -104 -233 -205 -22 -48 -27 -71 -26 -142
0 -110 32 -186 110 -260 79 -75 129 -94 244 -94 88 -1 100 2 162 32 81 40 149
113 179 192 29 76 24 214 -9 282 -61 124 -175 199 -310 205 -46 2 -93 -2 -117
-10z m177 -213 c46 -24 73 -72 73 -134 0 -93 -61 -153 -158 -154 -133 0 -199
177 -99 267 48 44 122 52 184 21z"/>
<path d="M4532 2410 c-71 -16 -117 -85 -110 -167 4 -44 11 -60 38 -89 79 -80
205 -61 251 40 23 52 23 80 0 132 -29 65 -105 100 -179 84z"/>
<path d="M4076 1559 c-89 -22 -136 -80 -136 -167 0 -143 112 -235 268 -219
120 13 192 93 192 217 0 80 -25 125 -84 153 -45 22 -183 31 -240 16z"/>
<path d="M2164 1861 c-30 -13 -64 -59 -64 -88 0 -36 25 -78 55 -91 45 -21 75
-14 112 23 31 31 35 40 30 72 -11 65 -78 107 -133 84z"/>
<path d="M2550 1701 c-81 -25 -150 -81 -150 -121 0 -39 60 -86 131 -104 19 -4
31 -17 43 -46 9 -22 16 -42 16 -45 0 -14 -57 -38 -102 -44 -51 -6 -53 -7 -53
-36 0 -26 5 -31 35 -39 47 -11 112 7 154 44 22 20 45 30 65 30 65 0 161 67
161 112 0 18 -20 38 -38 38 -8 0 -32 -16 -53 -35 -25 -23 -49 -35 -68 -35 -24
0 -30 6 -44 41 -15 39 -15 43 4 80 10 21 22 58 25 82 6 39 3 46 -21 65 -28 22
-60 26 -105 13z"/>
</g>
</svg>
